<?xml version="1.0" encoding="utf-8" standalone="no"?>
<!DOCTYPE svg PUBLIC "-//W3C//DTD SVG 1.1//EN"
  "http://www.w3.org/Graphics/SVG/1.1/DTD/svg11.dtd">
<svg xmlns:xlink="http://www.w3.org/1999/xlink" width="460.8pt" height="345.6pt" viewBox="0 0 460.8 345.6" xmlns="http://www.w3.org/2000/svg" version="1.1">
 <metadata>
  <rdf:RDF xmlns:dc="http://purl.org/dc/elements/1.1/" xmlns:cc="http://creativecommons.org/ns#" xmlns:rdf="http://www.w3.org/1999/02/22-rdf-syntax-ns#">
   <cc:Work>
    <dc:type rdf:resource="http://purl.org/dc/dcmitype/StillImage"/>
    <dc:date>2025-09-23T13:24:14.734237</dc:date>
    <dc:format>image/svg+xml</dc:format>
    <dc:creator>
     <cc:Agent>
      <dc:title>Matplotlib v3.7.3, https://matplotlib.org/</dc:title>
     </cc:Agent>
    </dc:creator>
   </cc:Work>
  </rdf:RDF>
 </metadata>
 <defs>
  <style type="text/css">*{stroke-linejoin: round; stroke-linecap: butt}</style>
 </defs>
 <g id="figure_1">
  <g id="patch_1">
   <path d="M 0 345.6 
L 460.8 345.6 
L 460.8 0 
L 0 0 
z
" style="fill: #ffffff"/>
  </g>
  <g id="axes_1">
   <g id="patch_2">
    <path d="M 57.6 307.584 
L 414.72 307.584 
L 414.72 41.472 
L 57.6 41.472 
z
" style="fill: #ffffff"/>
   </g>
   <g id="matplotlib.axis_1">
    <g id="xtick_1">
     <g id="line2d_1">
      <path d="M 109.905455 307.584 
L 109.905455 41.472 
" clip-path="url(#p66d80de328)" style="fill: none; stroke: #b0b0b0; stroke-width: 0.8; stroke-linecap: square"/>
     </g>
     <g id="line2d_2">
      <defs>
       <path id="m93520c2022" d="M 0 0 
L 0 3.5 
" style="stroke: #000000; stroke-width: 0.8"/>
      </defs>
      <g>
       <use xlink:href="#m93520c2022" x="109.905455" y="307.584" style="stroke: #000000; stroke-width: 0.8"/>
      </g>
     </g>
     <g id="text_1">
      <!-- 10 -->
      <g transform="translate(103.542955 322.182437) scale(0.1 -0.1)">
       <defs>
        <path id="DejaVuSans-31" d="M 794 531 
L 1825 531 
L 1825 4091 
L 703 3866 
L 703 4441 
L 1819 4666 
L 2450 4666 
L 2450 531 
L 3481 531 
L 3481 0 
L 794 0 
L 794 531 
z
" transform="scale(0.015625)"/>
        <path id="DejaVuSans-30" d="M 2034 4250 
Q 1547 4250 1301 3770 
Q 1056 3291 1056 2328 
Q 1056 1369 1301 889 
Q 1547 409 2034 409 
Q 2525 409 2770 889 
Q 3016 1369 3016 2328 
Q 3016 3291 2770 3770 
Q 2525 4250 2034 4250 
z
M 2034 4750 
Q 2819 4750 3233 4129 
Q 3647 3509 3647 2328 
Q 3647 1150 3233 529 
Q 2819 -91 2034 -91 
Q 1250 -91 836 529 
Q 422 1150 422 2328 
Q 422 3509 836 4129 
Q 1250 4750 2034 4750 
z
" transform="scale(0.015625)"/>
       </defs>
       <use xlink:href="#DejaVuSans-31"/>
       <use xlink:href="#DejaVuSans-30" x="63.623047"/>
      </g>
     </g>
    </g>
    <g id="xtick_2">
     <g id="line2d_3">
      <path d="M 182.050909 307.584 
L 182.050909 41.472 
" clip-path="url(#p66d80de328)" style="fill: none; stroke: #b0b0b0; stroke-width: 0.8; stroke-linecap: square"/>
     </g>
     <g id="line2d_4">
      <g>
       <use xlink:href="#m93520c2022" x="182.050909" y="307.584" style="stroke: #000000; stroke-width: 0.8"/>
      </g>
     </g>
     <g id="text_2">
      <!-- 20 -->
      <g transform="translate(175.688409 322.182437) scale(0.1 -0.1)">
       <defs>
        <path id="DejaVuSans-32" d="M 1228 531 
L 3431 531 
L 3431 0 
L 469 0 
L 469 531 
Q 828 903 1448 1529 
Q 2069 2156 2228 2338 
Q 2531 2678 2651 2914 
Q 2772 3150 2772 3378 
Q 2772 3750 2511 3984 
Q 2250 4219 1831 4219 
Q 1534 4219 1204 4116 
Q 875 4013 500 3803 
L 500 4441 
Q 881 4594 1212 4672 
Q 1544 4750 1819 4750 
Q 2544 4750 2975 4387 
Q 3406 4025 3406 3419 
Q 3406 3131 3298 2873 
Q 3191 2616 2906 2266 
Q 2828 2175 2409 1742 
Q 1991 1309 1228 531 
z
" transform="scale(0.015625)"/>
       </defs>
       <use xlink:href="#DejaVuSans-32"/>
       <use xlink:href="#DejaVuSans-30" x="63.623047"/>
      </g>
     </g>
    </g>
    <g id="xtick_3">
     <g id="line2d_5">
      <path d="M 254.196364 307.584 
L 254.196364 41.472 
" clip-path="url(#p66d80de328)" style="fill: none; stroke: #b0b0b0; stroke-width: 0.8; stroke-linecap: square"/>
     </g>
     <g id="line2d_6">
      <g>
       <use xlink:href="#m93520c2022" x="254.196364" y="307.584" style="stroke: #000000; stroke-width: 0.8"/>
      </g>
     </g>
     <g id="text_3">
      <!-- 30 -->
      <g transform="translate(247.833864 322.182437) scale(0.1 -0.1)">
       <defs>
        <path id="DejaVuSans-33" d="M 2597 2516 
Q 3050 2419 3304 2112 
Q 3559 1806 3559 1356 
Q 3559 666 3084 287 
Q 2609 -91 1734 -91 
Q 1441 -91 1130 -33 
Q 819 25 488 141 
L 488 750 
Q 750 597 1062 519 
Q 1375 441 1716 441 
Q 2309 441 2620 675 
Q 2931 909 2931 1356 
Q 2931 1769 2642 2001 
Q 2353 2234 1838 2234 
L 1294 2234 
L 1294 2753 
L 1863 2753 
Q 2328 2753 2575 2939 
Q 2822 3125 2822 3475 
Q 2822 3834 2567 4026 
Q 2313 4219 1838 4219 
Q 1578 4219 1281 4162 
Q 984 4106 628 3988 
L 628 4550 
Q 988 4650 1302 4700 
Q 1616 4750 1894 4750 
Q 2613 4750 3031 4423 
Q 3450 4097 3450 3541 
Q 3450 3153 3228 2886 
Q 3006 2619 2597 2516 
z
" transform="scale(0.015625)"/>
       </defs>
       <use xlink:href="#DejaVuSans-33"/>
       <use xlink:href="#DejaVuSans-30" x="63.623047"/>
      </g>
     </g>
    </g>
    <g id="xtick_4">
     <g id="line2d_7">
      <path d="M 326.341818 307.584 
L 326.341818 41.472 
" clip-path="url(#p66d80de328)" style="fill: none; stroke: #b0b0b0; stroke-width: 0.8; stroke-linecap: square"/>
     </g>
     <g id="line2d_8">
      <g>
       <use xlink:href="#m93520c2022" x="326.341818" y="307.584" style="stroke: #000000; stroke-width: 0.8"/>
      </g>
     </g>
     <g id="text_4">
      <!-- 40 -->
      <g transform="translate(319.979318 322.182437) scale(0.1 -0.1)">
       <defs>
        <path id="DejaVuSans-34" d="M 2419 4116 
L 825 1625 
L 2419 1625 
L 2419 4116 
z
M 2253 4666 
L 3047 4666 
L 3047 1625 
L 3713 1625 
L 3713 1100 
L 3047 1100 
L 3047 0 
L 2419 0 
L 2419 1100 
L 313 1100 
L 313 1709 
L 2253 4666 
z
" transform="scale(0.015625)"/>
       </defs>
       <use xlink:href="#DejaVuSans-34"/>
       <use xlink:href="#DejaVuSans-30" x="63.623047"/>
      </g>
     </g>
    </g>
    <g id="xtick_5">
     <g id="line2d_9">
      <path d="M 398.487273 307.584 
L 398.487273 41.472 
" clip-path="url(#p66d80de328)" style="fill: none; stroke: #b0b0b0; stroke-width: 0.8; stroke-linecap: square"/>
     </g>
     <g id="line2d_10">
      <g>
       <use xlink:href="#m93520c2022" x="398.487273" y="307.584" style="stroke: #000000; stroke-width: 0.8"/>
      </g>
     </g>
     <g id="text_5">
      <!-- 50 -->
      <g transform="translate(392.124773 322.182437) scale(0.1 -0.1)">
       <defs>
        <path id="DejaVuSans-35" d="M 691 4666 
L 3169 4666 
L 3169 4134 
L 1269 4134 
L 1269 2991 
Q 1406 3038 1543 3061 
Q 1681 3084 1819 3084 
Q 2600 3084 3056 2656 
Q 3513 2228 3513 1497 
Q 3513 744 3044 326 
Q 2575 -91 1722 -91 
Q 1428 -91 1123 -41 
Q 819 9 494 109 
L 494 744 
Q 775 591 1075 516 
Q 1375 441 1709 441 
Q 2250 441 2565 725 
Q 2881 1009 2881 1497 
Q 2881 1984 2565 2268 
Q 2250 2553 1709 2553 
Q 1456 2553 1204 2497 
Q 953 2441 691 2322 
L 691 4666 
z
" transform="scale(0.015625)"/>
       </defs>
       <use xlink:href="#DejaVuSans-35"/>
       <use xlink:href="#DejaVuSans-30" x="63.623047"/>
      </g>
     </g>
    </g>
    <g id="text_6">
     <!-- Количество одновременно выполняемых запросов -->
     <g transform="translate(101.720937 335.860562) scale(0.1 -0.1)">
      <defs>
       <path id="DejaVuSans-41a" d="M 628 4666 
L 1259 4666 
L 1259 2359 
L 3516 4666 
L 4325 4666 
L 2522 2822 
L 4419 0 
L 3731 0 
L 2113 2403 
L 1259 1531 
L 1259 0 
L 628 0 
L 628 4666 
z
" transform="scale(0.015625)"/>
       <path id="DejaVuSans-43e" d="M 1959 3097 
Q 1497 3097 1228 2736 
Q 959 2375 959 1747 
Q 959 1119 1226 758 
Q 1494 397 1959 397 
Q 2419 397 2687 759 
Q 2956 1122 2956 1747 
Q 2956 2369 2687 2733 
Q 2419 3097 1959 3097 
z
M 1959 3584 
Q 2709 3584 3137 3096 
Q 3566 2609 3566 1747 
Q 3566 888 3137 398 
Q 2709 -91 1959 -91 
Q 1206 -91 779 398 
Q 353 888 353 1747 
Q 353 2609 779 3096 
Q 1206 3584 1959 3584 
z
" transform="scale(0.015625)"/>
       <path id="DejaVuSans-43b" d="M 238 0 
L 238 478 
Q 806 566 981 959 
Q 1194 1513 1194 2928 
L 1194 3500 
L 3559 3500 
L 3559 0 
L 2984 0 
L 2984 3041 
L 1769 3041 
L 1769 2694 
Q 1769 1344 1494 738 
Q 1200 91 238 0 
z
" transform="scale(0.015625)"/>
       <path id="DejaVuSans-438" d="M 3578 3500 
L 3578 0 
L 3006 0 
L 3006 2809 
L 1319 0 
L 581 0 
L 581 3500 
L 1153 3500 
L 1153 697 
L 2838 3500 
L 3578 3500 
z
" transform="scale(0.015625)"/>
       <path id="DejaVuSans-447" d="M 2625 0 
L 2625 1472 
L 1553 1472 
Q 1075 1472 756 1769 
Q 469 2038 469 2613 
L 469 3500 
L 1044 3500 
L 1044 2666 
Q 1044 2300 1206 2116 
Q 1372 1931 1697 1931 
L 2625 1931 
L 2625 3500 
L 3200 3500 
L 3200 0 
L 2625 0 
z
" transform="scale(0.015625)"/>
       <path id="DejaVuSans-435" d="M 3597 1894 
L 3597 1613 
L 953 1613 
Q 991 1019 1311 708 
Q 1631 397 2203 397 
Q 2534 397 2845 478 
Q 3156 559 3463 722 
L 3463 178 
Q 3153 47 2828 -22 
Q 2503 -91 2169 -91 
Q 1331 -91 842 396 
Q 353 884 353 1716 
Q 353 2575 817 3079 
Q 1281 3584 2069 3584 
Q 2775 3584 3186 3129 
Q 3597 2675 3597 1894 
z
M 3022 2063 
Q 3016 2534 2758 2815 
Q 2500 3097 2075 3097 
Q 1594 3097 1305 2825 
Q 1016 2553 972 2059 
L 3022 2063 
z
" transform="scale(0.015625)"/>
       <path id="DejaVuSans-441" d="M 3122 3366 
L 3122 2828 
Q 2878 2963 2633 3030 
Q 2388 3097 2138 3097 
Q 1578 3097 1268 2742 
Q 959 2388 959 1747 
Q 959 1106 1268 751 
Q 1578 397 2138 397 
Q 2388 397 2633 464 
Q 2878 531 3122 666 
L 3122 134 
Q 2881 22 2623 -34 
Q 2366 -91 2075 -91 
Q 1284 -91 818 406 
Q 353 903 353 1747 
Q 353 2603 823 3093 
Q 1294 3584 2113 3584 
Q 2378 3584 2631 3529 
Q 2884 3475 3122 3366 
z
" transform="scale(0.015625)"/>
       <path id="DejaVuSans-442" d="M 188 3500 
L 3541 3500 
L 3541 3041 
L 2147 3041 
L 2147 0 
L 1581 0 
L 1581 3041 
L 188 3041 
L 188 3500 
z
" transform="scale(0.015625)"/>
       <path id="DejaVuSans-432" d="M 1156 1613 
L 1156 459 
L 1975 459 
Q 2369 459 2575 607 
Q 2781 756 2781 1038 
Q 2781 1319 2575 1466 
Q 2369 1613 1975 1613 
L 1156 1613 
z
M 1156 3041 
L 1156 2072 
L 1913 2072 
Q 2238 2072 2444 2201 
Q 2650 2331 2650 2563 
Q 2650 2794 2444 2917 
Q 2238 3041 1913 3041 
L 1156 3041 
z
M 581 3500 
L 1950 3500 
Q 2566 3500 2897 3275 
Q 3228 3050 3228 2634 
Q 3228 2313 3059 2123 
Q 2891 1934 2559 1888 
Q 2956 1813 3175 1575 
Q 3394 1338 3394 981 
Q 3394 513 3033 256 
Q 2672 0 2003 0 
L 581 0 
L 581 3500 
z
" transform="scale(0.015625)"/>
       <path id="DejaVuSans-20" transform="scale(0.015625)"/>
       <path id="DejaVuSans-434" d="M 1384 459 
L 3053 459 
L 3053 3041 
L 1844 3041 
L 1844 2603 
Q 1844 1316 1475 628 
L 1384 459 
z
M 550 459 
Q 834 584 959 850 
Q 1266 1509 1266 2838 
L 1266 3500 
L 3631 3500 
L 3631 459 
L 4091 459 
L 4091 -884 
L 3631 -884 
L 3631 0 
L 794 0 
L 794 -884 
L 334 -884 
L 334 459 
L 550 459 
z
" transform="scale(0.015625)"/>
       <path id="DejaVuSans-43d" d="M 581 3500 
L 1159 3500 
L 1159 2072 
L 3025 2072 
L 3025 3500 
L 3603 3500 
L 3603 0 
L 3025 0 
L 3025 1613 
L 1159 1613 
L 1159 0 
L 581 0 
L 581 3500 
z
" transform="scale(0.015625)"/>
       <path id="DejaVuSans-440" d="M 1159 525 
L 1159 -1331 
L 581 -1331 
L 581 3500 
L 1159 3500 
L 1159 2969 
Q 1341 3281 1617 3432 
Q 1894 3584 2278 3584 
Q 2916 3584 3314 3078 
Q 3713 2572 3713 1747 
Q 3713 922 3314 415 
Q 2916 -91 2278 -91 
Q 1894 -91 1617 61 
Q 1341 213 1159 525 
z
M 3116 1747 
Q 3116 2381 2855 2742 
Q 2594 3103 2138 3103 
Q 1681 3103 1420 2742 
Q 1159 2381 1159 1747 
Q 1159 1113 1420 752 
Q 1681 391 2138 391 
Q 2594 391 2855 752 
Q 3116 1113 3116 1747 
z
" transform="scale(0.015625)"/>
       <path id="DejaVuSans-43c" d="M 581 3500 
L 1422 3500 
L 2416 1156 
L 3413 3500 
L 4247 3500 
L 4247 0 
L 3669 0 
L 3669 2950 
L 2703 672 
L 2128 672 
L 1159 2950 
L 1159 0 
L 581 0 
L 581 3500 
z
" transform="scale(0.015625)"/>
       <path id="DejaVuSans-44b" d="M 3907 3500 
L 4482 3500 
L 4482 0 
L 3907 0 
L 3907 3500 
z
M 4195 3584 
L 4195 3584 
z
M 2781 1038 
Q 2781 1319 2576 1466 
Q 2372 1613 1978 1613 
L 1159 1613 
L 1159 459 
L 1978 459 
Q 2372 459 2576 607 
Q 2781 756 2781 1038 
z
M 581 3500 
L 1159 3500 
L 1159 2072 
L 2003 2072 
Q 2672 2072 3033 1817 
Q 3394 1563 3394 1038 
Q 3394 513 3033 256 
Q 2672 0 2003 0 
L 581 0 
L 581 3500 
z
" transform="scale(0.015625)"/>
       <path id="DejaVuSans-43f" d="M 3603 3500 
L 3603 0 
L 3025 0 
L 3025 3041 
L 1159 3041 
L 1159 0 
L 581 0 
L 581 3500 
L 3603 3500 
z
" transform="scale(0.015625)"/>
       <path id="DejaVuSans-44f" d="M 1181 2491 
Q 1181 2231 1381 2084 
Q 1581 1938 1953 1938 
L 2728 1938 
L 2728 3041 
L 1953 3041 
Q 1581 3041 1381 2897 
Q 1181 2753 1181 2491 
z
M 363 0 
L 1431 1534 
Q 1069 1616 828 1830 
Q 588 2044 588 2491 
Q 588 2997 923 3248 
Q 1259 3500 1938 3500 
L 3306 3500 
L 3306 0 
L 2728 0 
L 2728 1478 
L 2013 1478 
L 981 0 
L 363 0 
z
" transform="scale(0.015625)"/>
       <path id="DejaVuSans-445" d="M 3513 3500 
L 2247 1797 
L 3578 0 
L 2900 0 
L 1881 1375 
L 863 0 
L 184 0 
L 1544 1831 
L 300 3500 
L 978 3500 
L 1906 2253 
L 2834 3500 
L 3513 3500 
z
" transform="scale(0.015625)"/>
       <path id="DejaVuSans-437" d="M 2206 1888 
Q 2594 1813 2809 1584 
Q 3025 1356 3025 1019 
Q 3025 478 2622 193 
Q 2219 -91 1475 -91 
Q 1225 -91 961 -47 
Q 697 -3 416 84 
L 416 619 
Q 638 503 903 445 
Q 1169 388 1459 388 
Q 1931 388 2195 563 
Q 2459 738 2459 1019 
Q 2459 1294 2225 1461 
Q 1991 1628 1563 1628 
L 1100 1628 
L 1100 2103 
L 1584 2103 
Q 1947 2103 2158 2242 
Q 2369 2381 2369 2600 
Q 2369 2800 2151 2944 
Q 1934 3088 1563 3088 
Q 1341 3088 1089 3047 
Q 838 3006 534 2916 
L 534 3438 
Q 841 3513 1106 3550 
Q 1372 3588 1609 3588 
Q 2222 3588 2576 3342 
Q 2931 3097 2931 2656 
Q 2931 2366 2743 2164 
Q 2556 1963 2206 1888 
z
" transform="scale(0.015625)"/>
       <path id="DejaVuSans-430" d="M 2194 1759 
Q 1497 1759 1228 1600 
Q 959 1441 959 1056 
Q 959 750 1161 570 
Q 1363 391 1709 391 
Q 2188 391 2477 730 
Q 2766 1069 2766 1631 
L 2766 1759 
L 2194 1759 
z
M 3341 1997 
L 3341 0 
L 2766 0 
L 2766 531 
Q 2569 213 2275 61 
Q 1981 -91 1556 -91 
Q 1019 -91 701 211 
Q 384 513 384 1019 
Q 384 1609 779 1909 
Q 1175 2209 1959 2209 
L 2766 2209 
L 2766 2266 
Q 2766 2663 2505 2880 
Q 2244 3097 1772 3097 
Q 1472 3097 1187 3025 
Q 903 2953 641 2809 
L 641 3341 
Q 956 3463 1253 3523 
Q 1550 3584 1831 3584 
Q 2591 3584 2966 3190 
Q 3341 2797 3341 1997 
z
" transform="scale(0.015625)"/>
      </defs>
      <use xlink:href="#DejaVuSans-41a"/>
      <use xlink:href="#DejaVuSans-43e" x="70.996094"/>
      <use xlink:href="#DejaVuSans-43b" x="132.177734"/>
      <use xlink:href="#DejaVuSans-438" x="196.09375"/>
      <use xlink:href="#DejaVuSans-447" x="261.083984"/>
      <use xlink:href="#DejaVuSans-435" x="320.166016"/>
      <use xlink:href="#DejaVuSans-441" x="381.689453"/>
      <use xlink:href="#DejaVuSans-442" x="436.669922"/>
      <use xlink:href="#DejaVuSans-432" x="494.921875"/>
      <use xlink:href="#DejaVuSans-43e" x="553.857422"/>
      <use xlink:href="#DejaVuSans-20" x="615.039062"/>
      <use xlink:href="#DejaVuSans-43e" x="646.826172"/>
      <use xlink:href="#DejaVuSans-434" x="708.007812"/>
      <use xlink:href="#DejaVuSans-43d" x="777.148438"/>
      <use xlink:href="#DejaVuSans-43e" x="842.529297"/>
      <use xlink:href="#DejaVuSans-432" x="903.710938"/>
      <use xlink:href="#DejaVuSans-440" x="962.646484"/>
      <use xlink:href="#DejaVuSans-435" x="1026.123047"/>
      <use xlink:href="#DejaVuSans-43c" x="1087.646484"/>
      <use xlink:href="#DejaVuSans-435" x="1163.085938"/>
      <use xlink:href="#DejaVuSans-43d" x="1224.609375"/>
      <use xlink:href="#DejaVuSans-43d" x="1289.990234"/>
      <use xlink:href="#DejaVuSans-43e" x="1355.371094"/>
      <use xlink:href="#DejaVuSans-20" x="1416.552734"/>
      <use xlink:href="#DejaVuSans-432" x="1448.339844"/>
      <use xlink:href="#DejaVuSans-44b" x="1507.275391"/>
      <use xlink:href="#DejaVuSans-43f" x="1586.230469"/>
      <use xlink:href="#DejaVuSans-43e" x="1651.611328"/>
      <use xlink:href="#DejaVuSans-43b" x="1712.792969"/>
      <use xlink:href="#DejaVuSans-43d" x="1776.708984"/>
      <use xlink:href="#DejaVuSans-44f" x="1842.089844"/>
      <use xlink:href="#DejaVuSans-435" x="1902.246094"/>
      <use xlink:href="#DejaVuSans-43c" x="1963.769531"/>
      <use xlink:href="#DejaVuSans-44b" x="2039.208984"/>
      <use xlink:href="#DejaVuSans-445" x="2118.164062"/>
      <use xlink:href="#DejaVuSans-20" x="2177.34375"/>
      <use xlink:href="#DejaVuSans-437" x="2209.130859"/>
      <use xlink:href="#DejaVuSans-430" x="2262.304688"/>
      <use xlink:href="#DejaVuSans-43f" x="2323.583984"/>
      <use xlink:href="#DejaVuSans-440" x="2388.964844"/>
      <use xlink:href="#DejaVuSans-43e" x="2452.441406"/>
      <use xlink:href="#DejaVuSans-441" x="2513.623047"/>
      <use xlink:href="#DejaVuSans-43e" x="2568.603516"/>
      <use xlink:href="#DejaVuSans-432" x="2629.785156"/>
     </g>
    </g>
   </g>
   <g id="matplotlib.axis_2">
    <g id="ytick_1">
     <g id="line2d_11">
      <path d="M 57.6 299.085569 
L 414.72 299.085569 
" clip-path="url(#p66d80de328)" style="fill: none; stroke: #b0b0b0; stroke-width: 0.8; stroke-linecap: square"/>
     </g>
     <g id="line2d_12">
      <defs>
       <path id="ma11a4087e8" d="M 0 0 
L -3.5 0 
" style="stroke: #000000; stroke-width: 0.8"/>
      </defs>
      <g>
       <use xlink:href="#ma11a4087e8" x="57.6" y="299.085569" style="stroke: #000000; stroke-width: 0.8"/>
      </g>
     </g>
     <g id="text_7">
      <!-- 250 -->
      <g transform="translate(31.5125 302.884788) scale(0.1 -0.1)">
       <use xlink:href="#DejaVuSans-32"/>
       <use xlink:href="#DejaVuSans-35" x="63.623047"/>
       <use xlink:href="#DejaVuSans-30" x="127.246094"/>
      </g>
     </g>
    </g>
    <g id="ytick_2">
     <g id="line2d_13">
      <path d="M 57.6 269.215408 
L 414.72 269.215408 
" clip-path="url(#p66d80de328)" style="fill: none; stroke: #b0b0b0; stroke-width: 0.8; stroke-linecap: square"/>
     </g>
     <g id="line2d_14">
      <g>
       <use xlink:href="#ma11a4087e8" x="57.6" y="269.215408" style="stroke: #000000; stroke-width: 0.8"/>
      </g>
     </g>
     <g id="text_8">
      <!-- 500 -->
      <g transform="translate(31.5125 273.014626) scale(0.1 -0.1)">
       <use xlink:href="#DejaVuSans-35"/>
       <use xlink:href="#DejaVuSans-30" x="63.623047"/>
       <use xlink:href="#DejaVuSans-30" x="127.246094"/>
      </g>
     </g>
    </g>
    <g id="ytick_3">
     <g id="line2d_15">
      <path d="M 57.6 239.345246 
L 414.72 239.345246 
" clip-path="url(#p66d80de328)" style="fill: none; stroke: #b0b0b0; stroke-width: 0.8; stroke-linecap: square"/>
     </g>
     <g id="line2d_16">
      <g>
       <use xlink:href="#ma11a4087e8" x="57.6" y="239.345246" style="stroke: #000000; stroke-width: 0.8"/>
      </g>
     </g>
     <g id="text_9">
      <!-- 750 -->
      <g transform="translate(31.5125 243.144465) scale(0.1 -0.1)">
       <defs>
        <path id="DejaVuSans-37" d="M 525 4666 
L 3525 4666 
L 3525 4397 
L 1831 0 
L 1172 0 
L 2766 4134 
L 525 4134 
L 525 4666 
z
" transform="scale(0.015625)"/>
       </defs>
       <use xlink:href="#DejaVuSans-37"/>
       <use xlink:href="#DejaVuSans-35" x="63.623047"/>
       <use xlink:href="#DejaVuSans-30" x="127.246094"/>
      </g>
     </g>
    </g>
    <g id="ytick_4">
     <g id="line2d_17">
      <path d="M 57.6 209.475084 
L 414.72 209.475084 
" clip-path="url(#p66d80de328)" style="fill: none; stroke: #b0b0b0; stroke-width: 0.8; stroke-linecap: square"/>
     </g>
     <g id="line2d_18">
      <g>
       <use xlink:href="#ma11a4087e8" x="57.6" y="209.475084" style="stroke: #000000; stroke-width: 0.8"/>
      </g>
     </g>
     <g id="text_10">
      <!-- 1000 -->
      <g transform="translate(25.15 213.274303) scale(0.1 -0.1)">
       <use xlink:href="#DejaVuSans-31"/>
       <use xlink:href="#DejaVuSans-30" x="63.623047"/>
       <use xlink:href="#DejaVuSans-30" x="127.246094"/>
       <use xlink:href="#DejaVuSans-30" x="190.869141"/>
      </g>
     </g>
    </g>
    <g id="ytick_5">
     <g id="line2d_19">
      <path d="M 57.6 179.604922 
L 414.72 179.604922 
" clip-path="url(#p66d80de328)" style="fill: none; stroke: #b0b0b0; stroke-width: 0.8; stroke-linecap: square"/>
     </g>
     <g id="line2d_20">
      <g>
       <use xlink:href="#ma11a4087e8" x="57.6" y="179.604922" style="stroke: #000000; stroke-width: 0.8"/>
      </g>
     </g>
     <g id="text_11">
      <!-- 1250 -->
      <g transform="translate(25.15 183.404141) scale(0.1 -0.1)">
       <use xlink:href="#DejaVuSans-31"/>
       <use xlink:href="#DejaVuSans-32" x="63.623047"/>
       <use xlink:href="#DejaVuSans-35" x="127.246094"/>
       <use xlink:href="#DejaVuSans-30" x="190.869141"/>
      </g>
     </g>
    </g>
    <g id="ytick_6">
     <g id="line2d_21">
      <path d="M 57.6 149.73476 
L 414.72 149.73476 
" clip-path="url(#p66d80de328)" style="fill: none; stroke: #b0b0b0; stroke-width: 0.8; stroke-linecap: square"/>
     </g>
     <g id="line2d_22">
      <g>
       <use xlink:href="#ma11a4087e8" x="57.6" y="149.73476" style="stroke: #000000; stroke-width: 0.8"/>
      </g>
     </g>
     <g id="text_12">
      <!-- 1500 -->
      <g transform="translate(25.15 153.533979) scale(0.1 -0.1)">
       <use xlink:href="#DejaVuSans-31"/>
       <use xlink:href="#DejaVuSans-35" x="63.623047"/>
       <use xlink:href="#DejaVuSans-30" x="127.246094"/>
       <use xlink:href="#DejaVuSans-30" x="190.869141"/>
      </g>
     </g>
    </g>
    <g id="ytick_7">
     <g id="line2d_23">
      <path d="M 57.6 119.864598 
L 414.72 119.864598 
" clip-path="url(#p66d80de328)" style="fill: none; stroke: #b0b0b0; stroke-width: 0.8; stroke-linecap: square"/>
     </g>
     <g id="line2d_24">
      <g>
       <use xlink:href="#ma11a4087e8" x="57.6" y="119.864598" style="stroke: #000000; stroke-width: 0.8"/>
      </g>
     </g>
     <g id="text_13">
      <!-- 1750 -->
      <g transform="translate(25.15 123.663817) scale(0.1 -0.1)">
       <use xlink:href="#DejaVuSans-31"/>
       <use xlink:href="#DejaVuSans-37" x="63.623047"/>
       <use xlink:href="#DejaVuSans-35" x="127.246094"/>
       <use xlink:href="#DejaVuSans-30" x="190.869141"/>
      </g>
     </g>
    </g>
    <g id="ytick_8">
     <g id="line2d_25">
      <path d="M 57.6 89.994437 
L 414.72 89.994437 
" clip-path="url(#p66d80de328)" style="fill: none; stroke: #b0b0b0; stroke-width: 0.8; stroke-linecap: square"/>
     </g>
     <g id="line2d_26">
      <g>
       <use xlink:href="#ma11a4087e8" x="57.6" y="89.994437" style="stroke: #000000; stroke-width: 0.8"/>
      </g>
     </g>
     <g id="text_14">
      <!-- 2000 -->
      <g transform="translate(25.15 93.793655) scale(0.1 -0.1)">
       <use xlink:href="#DejaVuSans-32"/>
       <use xlink:href="#DejaVuSans-30" x="63.623047"/>
       <use xlink:href="#DejaVuSans-30" x="127.246094"/>
       <use xlink:href="#DejaVuSans-30" x="190.869141"/>
      </g>
     </g>
    </g>
    <g id="ytick_9">
     <g id="line2d_27">
      <path d="M 57.6 60.124275 
L 414.72 60.124275 
" clip-path="url(#p66d80de328)" style="fill: none; stroke: #b0b0b0; stroke-width: 0.8; stroke-linecap: square"/>
     </g>
     <g id="line2d_28">
      <g>
       <use xlink:href="#ma11a4087e8" x="57.6" y="60.124275" style="stroke: #000000; stroke-width: 0.8"/>
      </g>
     </g>
     <g id="text_15">
      <!-- 2250 -->
      <g transform="translate(25.15 63.923494) scale(0.1 -0.1)">
       <use xlink:href="#DejaVuSans-32"/>
       <use xlink:href="#DejaVuSans-32" x="63.623047"/>
       <use xlink:href="#DejaVuSans-35" x="127.246094"/>
       <use xlink:href="#DejaVuSans-30" x="190.869141"/>
      </g>
     </g>
    </g>
    <g id="text_16">
     <!-- Время на 10 запросов, мс -->
     <g transform="translate(19.070312 242.131125) rotate(-90) scale(0.1 -0.1)">
      <defs>
       <path id="DejaVuSans-412" d="M 1259 2228 
L 1259 519 
L 2272 519 
Q 2781 519 3026 730 
Q 3272 941 3272 1375 
Q 3272 1813 3026 2020 
Q 2781 2228 2272 2228 
L 1259 2228 
z
M 1259 4147 
L 1259 2741 
L 2194 2741 
Q 2656 2741 2882 2914 
Q 3109 3088 3109 3444 
Q 3109 3797 2882 3972 
Q 2656 4147 2194 4147 
L 1259 4147 
z
M 628 4666 
L 2241 4666 
Q 2963 4666 3353 4366 
Q 3744 4066 3744 3513 
Q 3744 3084 3544 2831 
Q 3344 2578 2956 2516 
Q 3422 2416 3680 2098 
Q 3938 1781 3938 1306 
Q 3938 681 3513 340 
Q 3088 0 2303 0 
L 628 0 
L 628 4666 
z
" transform="scale(0.015625)"/>
       <path id="DejaVuSans-2c" d="M 750 794 
L 1409 794 
L 1409 256 
L 897 -744 
L 494 -744 
L 750 256 
L 750 794 
z
" transform="scale(0.015625)"/>
      </defs>
      <use xlink:href="#DejaVuSans-412"/>
      <use xlink:href="#DejaVuSans-440" x="68.603516"/>
      <use xlink:href="#DejaVuSans-435" x="132.080078"/>
      <use xlink:href="#DejaVuSans-43c" x="193.603516"/>
      <use xlink:href="#DejaVuSans-44f" x="269.042969"/>
      <use xlink:href="#DejaVuSans-20" x="329.199219"/>
      <use xlink:href="#DejaVuSans-43d" x="360.986328"/>
      <use xlink:href="#DejaVuSans-430" x="426.367188"/>
      <use xlink:href="#DejaVuSans-20" x="487.646484"/>
      <use xlink:href="#DejaVuSans-31" x="519.433594"/>
      <use xlink:href="#DejaVuSans-30" x="583.056641"/>
      <use xlink:href="#DejaVuSans-20" x="646.679688"/>
      <use xlink:href="#DejaVuSans-437" x="678.466797"/>
      <use xlink:href="#DejaVuSans-430" x="731.640625"/>
      <use xlink:href="#DejaVuSans-43f" x="792.919922"/>
      <use xlink:href="#DejaVuSans-440" x="858.300781"/>
      <use xlink:href="#DejaVuSans-43e" x="921.777344"/>
      <use xlink:href="#DejaVuSans-441" x="982.958984"/>
      <use xlink:href="#DejaVuSans-43e" x="1037.939453"/>
      <use xlink:href="#DejaVuSans-432" x="1099.121094"/>
      <use xlink:href="#DejaVuSans-2c" x="1158.056641"/>
      <use xlink:href="#DejaVuSans-20" x="1189.84375"/>
      <use xlink:href="#DejaVuSans-43c" x="1221.630859"/>
      <use xlink:href="#DejaVuSans-441" x="1297.070312"/>
     </g>
    </g>
   </g>
   <g id="line2d_29">
    <path d="M 73.832727 269.723522 
L 109.905455 254.197601 
L 145.978182 228.194926 
L 182.050909 202.055989 
L 218.123636 165.834853 
L 254.196364 144.863942 
L 290.269091 128.758558 
L 326.341818 105.010881 
L 362.414545 77.204954 
L 398.487273 53.568 
" clip-path="url(#p66d80de328)" style="fill: none; stroke-dasharray: 5.55,2.4; stroke-dashoffset: 0; stroke: #000000; stroke-width: 1.5"/>
    <defs>
     <path id="m5e0861cc39" d="M 0 3 
C 0.795609 3 1.55874 2.683901 2.12132 2.12132 
C 2.683901 1.55874 3 0.795609 3 0 
C 3 -0.795609 2.683901 -1.55874 2.12132 -2.12132 
C 1.55874 -2.683901 0.795609 -3 0 -3 
C -0.795609 -3 -1.55874 -2.683901 -2.12132 -2.12132 
C -2.683901 -1.55874 -3 -0.795609 -3 0 
C -3 0.795609 -2.683901 1.55874 -2.12132 2.12132 
C -1.55874 2.683901 -0.795609 3 0 3 
z
" style="stroke: #000000"/>
    </defs>
    <g clip-path="url(#p66d80de328)">
     <use xlink:href="#m5e0861cc39" x="73.832727" y="269.723522" style="stroke: #000000"/>
     <use xlink:href="#m5e0861cc39" x="109.905455" y="254.197601" style="stroke: #000000"/>
     <use xlink:href="#m5e0861cc39" x="145.978182" y="228.194926" style="stroke: #000000"/>
     <use xlink:href="#m5e0861cc39" x="182.050909" y="202.055989" style="stroke: #000000"/>
     <use xlink:href="#m5e0861cc39" x="218.123636" y="165.834853" style="stroke: #000000"/>
     <use xlink:href="#m5e0861cc39" x="254.196364" y="144.863942" style="stroke: #000000"/>
     <use xlink:href="#m5e0861cc39" x="290.269091" y="128.758558" style="stroke: #000000"/>
     <use xlink:href="#m5e0861cc39" x="326.341818" y="105.010881" style="stroke: #000000"/>
     <use xlink:href="#m5e0861cc39" x="362.414545" y="77.204954" style="stroke: #000000"/>
     <use xlink:href="#m5e0861cc39" x="398.487273" y="53.568" style="stroke: #000000"/>
    </g>
   </g>
   <g id="line2d_30">
    <path d="M 73.832727 295.488 
L 109.905455 278.023893 
L 145.978182 252.627689 
L 182.050909 230.050443 
L 218.123636 182.973901 
L 254.196364 170.799291 
L 290.269091 166.806497 
L 326.341818 145.61791 
L 362.414545 122.20779 
L 398.487273 99.422379 
" clip-path="url(#p66d80de328)" style="fill: none; stroke: #000000; stroke-width: 1.5; stroke-linecap: square"/>
    <defs>
     <path id="m851e6fdbdc" d="M 0 -3 
L -0.673542 -0.927051 
L -2.85317 -0.927051 
L -1.089814 0.354102 
L -1.763356 2.427051 
L -0 1.145898 
L 1.763356 2.427051 
L 1.089814 0.354102 
L 2.85317 -0.927051 
L 0.673542 -0.927051 
z
" style="stroke: #000000; stroke-linejoin: bevel"/>
    </defs>
    <g clip-path="url(#p66d80de328)">
     <use xlink:href="#m851e6fdbdc" x="73.832727" y="295.488" style="stroke: #000000; stroke-linejoin: bevel"/>
     <use xlink:href="#m851e6fdbdc" x="109.905455" y="278.023893" style="stroke: #000000; stroke-linejoin: bevel"/>
     <use xlink:href="#m851e6fdbdc" x="145.978182" y="252.627689" style="stroke: #000000; stroke-linejoin: bevel"/>
     <use xlink:href="#m851e6fdbdc" x="182.050909" y="230.050443" style="stroke: #000000; stroke-linejoin: bevel"/>
     <use xlink:href="#m851e6fdbdc" x="218.123636" y="182.973901" style="stroke: #000000; stroke-linejoin: bevel"/>
     <use xlink:href="#m851e6fdbdc" x="254.196364" y="170.799291" style="stroke: #000000; stroke-linejoin: bevel"/>
     <use xlink:href="#m851e6fdbdc" x="290.269091" y="166.806497" style="stroke: #000000; stroke-linejoin: bevel"/>
     <use xlink:href="#m851e6fdbdc" x="326.341818" y="145.61791" style="stroke: #000000; stroke-linejoin: bevel"/>
     <use xlink:href="#m851e6fdbdc" x="362.414545" y="122.20779" style="stroke: #000000; stroke-linejoin: bevel"/>
     <use xlink:href="#m851e6fdbdc" x="398.487273" y="99.422379" style="stroke: #000000; stroke-linejoin: bevel"/>
    </g>
   </g>
   <g id="patch_3">
    <path d="M 57.6 307.584 
L 57.6 41.472 
" style="fill: none; stroke: #000000; stroke-width: 0.8; stroke-linejoin: miter; stroke-linecap: square"/>
   </g>
   <g id="patch_4">
    <path d="M 414.72 307.584 
L 414.72 41.472 
" style="fill: none; stroke: #000000; stroke-width: 0.8; stroke-linejoin: miter; stroke-linecap: square"/>
   </g>
   <g id="patch_5">
    <path d="M 57.6 307.584 
L 414.72 307.584 
" style="fill: none; stroke: #000000; stroke-width: 0.8; stroke-linejoin: miter; stroke-linecap: square"/>
   </g>
   <g id="patch_6">
    <path d="M 57.6 41.472 
L 414.72 41.472 
" style="fill: none; stroke: #000000; stroke-width: 0.8; stroke-linejoin: miter; stroke-linecap: square"/>
   </g>
   <g id="text_17">
    <!-- Зависимость времени выполнения запроса от количества -->
    <g transform="translate(51.430313 23.85825) scale(0.12 -0.12)">
     <defs>
      <path id="DejaVuSans-417" d="M 1828 4750 
Q 2597 4750 3084 4423 
Q 3572 4097 3572 3541 
Q 3572 3153 3350 2886 
Q 3128 2619 2719 2516 
Q 3172 2419 3426 2112 
Q 3681 1806 3681 1356 
Q 3681 638 3126 273 
Q 2572 -91 1828 -91 
Q 1447 -91 1003 12 
Q 559 116 422 203 
L 422 853 
Q 900 575 1164 508 
Q 1428 441 1816 441 
Q 2403 441 2728 666 
Q 3053 891 3053 1356 
Q 3053 1769 2764 2001 
Q 2475 2234 1866 2234 
L 1228 2234 
L 1228 2753 
L 1891 2753 
Q 2450 2753 2697 2939 
Q 2944 3125 2944 3475 
Q 2944 3834 2689 4026 
Q 2434 4219 1816 4219 
Q 1397 4219 1253 4181 
Q 1109 4144 469 3903 
L 469 4519 
Q 822 4644 1190 4697 
Q 1559 4750 1828 4750 
z
" transform="scale(0.015625)"/>
      <path id="DejaVuSans-44c" d="M 2781 1038 
Q 2781 1319 2576 1466 
Q 2372 1613 1978 1613 
L 1159 1613 
L 1159 459 
L 1978 459 
Q 2372 459 2576 607 
Q 2781 756 2781 1038 
z
M 581 3500 
L 1159 3500 
L 1159 2072 
L 2003 2072 
Q 2672 2072 3033 1817 
Q 3394 1563 3394 1038 
Q 3394 513 3033 256 
Q 2672 0 2003 0 
L 581 0 
L 581 3500 
z
" transform="scale(0.015625)"/>
      <path id="DejaVuSans-43a" d="M 581 3500 
L 1153 3500 
L 1153 1856 
L 2775 3500 
L 3481 3500 
L 2144 2147 
L 3653 0 
L 3009 0 
L 1769 1766 
L 1153 1141 
L 1153 0 
L 581 0 
L 581 3500 
z
" transform="scale(0.015625)"/>
     </defs>
     <use xlink:href="#DejaVuSans-417"/>
     <use xlink:href="#DejaVuSans-430" x="64.111328"/>
     <use xlink:href="#DejaVuSans-432" x="125.390625"/>
     <use xlink:href="#DejaVuSans-438" x="184.326172"/>
     <use xlink:href="#DejaVuSans-441" x="249.316406"/>
     <use xlink:href="#DejaVuSans-438" x="304.296875"/>
     <use xlink:href="#DejaVuSans-43c" x="369.287109"/>
     <use xlink:href="#DejaVuSans-43e" x="444.726562"/>
     <use xlink:href="#DejaVuSans-441" x="505.908203"/>
     <use xlink:href="#DejaVuSans-442" x="560.888672"/>
     <use xlink:href="#DejaVuSans-44c" x="619.140625"/>
     <use xlink:href="#DejaVuSans-20" x="678.076172"/>
     <use xlink:href="#DejaVuSans-432" x="709.863281"/>
     <use xlink:href="#DejaVuSans-440" x="768.798828"/>
     <use xlink:href="#DejaVuSans-435" x="832.275391"/>
     <use xlink:href="#DejaVuSans-43c" x="893.798828"/>
     <use xlink:href="#DejaVuSans-435" x="969.238281"/>
     <use xlink:href="#DejaVuSans-43d" x="1030.761719"/>
     <use xlink:href="#DejaVuSans-438" x="1096.142578"/>
     <use xlink:href="#DejaVuSans-20" x="1161.132812"/>
     <use xlink:href="#DejaVuSans-432" x="1192.919922"/>
     <use xlink:href="#DejaVuSans-44b" x="1251.855469"/>
     <use xlink:href="#DejaVuSans-43f" x="1330.810547"/>
     <use xlink:href="#DejaVuSans-43e" x="1396.191406"/>
     <use xlink:href="#DejaVuSans-43b" x="1457.373047"/>
     <use xlink:href="#DejaVuSans-43d" x="1521.289062"/>
     <use xlink:href="#DejaVuSans-435" x="1586.669922"/>
     <use xlink:href="#DejaVuSans-43d" x="1648.193359"/>
     <use xlink:href="#DejaVuSans-438" x="1713.574219"/>
     <use xlink:href="#DejaVuSans-44f" x="1778.564453"/>
     <use xlink:href="#DejaVuSans-20" x="1838.720703"/>
     <use xlink:href="#DejaVuSans-437" x="1870.507812"/>
     <use xlink:href="#DejaVuSans-430" x="1923.681641"/>
     <use xlink:href="#DejaVuSans-43f" x="1984.960938"/>
     <use xlink:href="#DejaVuSans-440" x="2050.341797"/>
     <use xlink:href="#DejaVuSans-43e" x="2113.818359"/>
     <use xlink:href="#DejaVuSans-441" x="2175"/>
     <use xlink:href="#DejaVuSans-430" x="2229.980469"/>
     <use xlink:href="#DejaVuSans-20" x="2291.259766"/>
     <use xlink:href="#DejaVuSans-43e" x="2323.046875"/>
     <use xlink:href="#DejaVuSans-442" x="2384.228516"/>
     <use xlink:href="#DejaVuSans-20" x="2442.480469"/>
     <use xlink:href="#DejaVuSans-43a" x="2474.267578"/>
     <use xlink:href="#DejaVuSans-43e" x="2534.667969"/>
     <use xlink:href="#DejaVuSans-43b" x="2595.849609"/>
     <use xlink:href="#DejaVuSans-438" x="2659.765625"/>
     <use xlink:href="#DejaVuSans-447" x="2724.755859"/>
     <use xlink:href="#DejaVuSans-435" x="2783.837891"/>
     <use xlink:href="#DejaVuSans-441" x="2845.361328"/>
     <use xlink:href="#DejaVuSans-442" x="2900.341797"/>
     <use xlink:href="#DejaVuSans-432" x="2958.59375"/>
     <use xlink:href="#DejaVuSans-430" x="3017.529297"/>
    </g>
    <!-- одновременно выполняемых запросов -->
    <g transform="translate(113.64375 37.295625) scale(0.12 -0.12)">
     <use xlink:href="#DejaVuSans-43e"/>
     <use xlink:href="#DejaVuSans-434" x="61.181641"/>
     <use xlink:href="#DejaVuSans-43d" x="130.322266"/>
     <use xlink:href="#DejaVuSans-43e" x="195.703125"/>
     <use xlink:href="#DejaVuSans-432" x="256.884766"/>
     <use xlink:href="#DejaVuSans-440" x="315.820312"/>
     <use xlink:href="#DejaVuSans-435" x="379.296875"/>
     <use xlink:href="#DejaVuSans-43c" x="440.820312"/>
     <use xlink:href="#DejaVuSans-435" x="516.259766"/>
     <use xlink:href="#DejaVuSans-43d" x="577.783203"/>
     <use xlink:href="#DejaVuSans-43d" x="643.164062"/>
     <use xlink:href="#DejaVuSans-43e" x="708.544922"/>
     <use xlink:href="#DejaVuSans-20" x="769.726562"/>
     <use xlink:href="#DejaVuSans-432" x="801.513672"/>
     <use xlink:href="#DejaVuSans-44b" x="860.449219"/>
     <use xlink:href="#DejaVuSans-43f" x="939.404297"/>
     <use xlink:href="#DejaVuSans-43e" x="1004.785156"/>
     <use xlink:href="#DejaVuSans-43b" x="1065.966797"/>
     <use xlink:href="#DejaVuSans-43d" x="1129.882812"/>
     <use xlink:href="#DejaVuSans-44f" x="1195.263672"/>
     <use xlink:href="#DejaVuSans-435" x="1255.419922"/>
     <use xlink:href="#DejaVuSans-43c" x="1316.943359"/>
     <use xlink:href="#DejaVuSans-44b" x="1392.382812"/>
     <use xlink:href="#DejaVuSans-445" x="1471.337891"/>
     <use xlink:href="#DejaVuSans-20" x="1530.517578"/>
     <use xlink:href="#DejaVuSans-437" x="1562.304688"/>
     <use xlink:href="#DejaVuSans-430" x="1615.478516"/>
     <use xlink:href="#DejaVuSans-43f" x="1676.757812"/>
     <use xlink:href="#DejaVuSans-440" x="1742.138672"/>
     <use xlink:href="#DejaVuSans-43e" x="1805.615234"/>
     <use xlink:href="#DejaVuSans-441" x="1866.796875"/>
     <use xlink:href="#DejaVuSans-43e" x="1921.777344"/>
     <use xlink:href="#DejaVuSans-432" x="1982.958984"/>
    </g>
   </g>
   <g id="legend_1">
    <g id="patch_7">
     <path d="M 64.6 78.998562 
L 236.25 78.998562 
Q 238.25 78.998562 238.25 76.998562 
L 238.25 48.472 
Q 238.25 46.472 236.25 46.472 
L 64.6 46.472 
Q 62.6 46.472 62.6 48.472 
L 62.6 76.998562 
Q 62.6 78.998562 64.6 78.998562 
z
" style="fill: #ffffff; opacity: 0.8; stroke: #cccccc; stroke-linejoin: miter"/>
    </g>
    <g id="line2d_31">
     <path d="M 66.6 54.74075 
L 76.6 54.74075 
L 86.6 54.74075 
" style="fill: none; stroke-dasharray: 5.55,2.4; stroke-dashoffset: 0; stroke: #000000; stroke-width: 1.5"/>
     <g>
      <use xlink:href="#m5e0861cc39" x="76.6" y="54.74075" style="stroke: #000000"/>
     </g>
    </g>
    <g id="text_18">
     <!-- Запросы без кэширования -->
     <g transform="translate(94.6 58.24075) scale(0.1 -0.1)">
      <defs>
       <path id="DejaVuSans-431" d="M 1991 3584 
Q 2741 3584 3169 3096 
Q 3597 2609 3597 1747 
Q 3597 888 3169 398 
Q 2741 -91 1991 -91 
Q 1238 -91 822 384 
Q 406 859 384 1747 
L 366 2463 
Q 350 2834 350 2963 
Q 350 3463 531 3831 
Q 816 4409 1308 4659 
Q 1800 4909 2625 4916 
Q 3006 4919 3175 4972 
L 3334 4516 
Q 3181 4453 3041 4450 
L 2259 4397 
Q 1866 4369 1628 4231 
Q 1006 3866 947 3388 
L 925 3213 
Q 1331 3584 1991 3584 
z
M 1991 3097 
Q 1528 3097 1259 2736 
Q 991 2375 991 1747 
Q 991 1119 1258 758 
Q 1525 397 1991 397 
Q 2450 397 2719 759 
Q 2988 1122 2988 1747 
Q 2988 2369 2719 2733 
Q 2450 3097 1991 3097 
z
" transform="scale(0.015625)"/>
       <path id="DejaVuSans-44d" d="M 353 666 
Q 847 397 1338 397 
Q 1797 397 2125 664 
Q 2453 931 2513 1613 
L 738 1613 
L 738 2072 
L 2494 2072 
Q 2456 2400 2207 2748 
Q 1959 3097 1338 3097 
Q 856 3097 353 2828 
L 353 3366 
Q 844 3584 1363 3584 
Q 2181 3584 2651 3089 
Q 3122 2594 3122 1747 
Q 3122 903 2664 406 
Q 2206 -91 1403 -91 
Q 813 -91 353 134 
L 353 666 
z
" transform="scale(0.015625)"/>
       <path id="DejaVuSans-448" d="M 3216 459 
L 4697 459 
L 4697 3500 
L 5275 3500 
L 5275 0 
L 581 0 
L 581 3500 
L 1159 3500 
L 1159 459 
L 2638 459 
L 2638 3500 
L 3216 3500 
L 3216 459 
z
" transform="scale(0.015625)"/>
      </defs>
      <use xlink:href="#DejaVuSans-417"/>
      <use xlink:href="#DejaVuSans-430" x="64.111328"/>
      <use xlink:href="#DejaVuSans-43f" x="125.390625"/>
      <use xlink:href="#DejaVuSans-440" x="190.771484"/>
      <use xlink:href="#DejaVuSans-43e" x="254.248047"/>
      <use xlink:href="#DejaVuSans-441" x="315.429688"/>
      <use xlink:href="#DejaVuSans-44b" x="370.410156"/>
      <use xlink:href="#DejaVuSans-20" x="449.365234"/>
      <use xlink:href="#DejaVuSans-431" x="481.152344"/>
      <use xlink:href="#DejaVuSans-435" x="542.822266"/>
      <use xlink:href="#DejaVuSans-437" x="604.345703"/>
      <use xlink:href="#DejaVuSans-20" x="657.519531"/>
      <use xlink:href="#DejaVuSans-43a" x="689.306641"/>
      <use xlink:href="#DejaVuSans-44d" x="749.707031"/>
      <use xlink:href="#DejaVuSans-448" x="804.589844"/>
      <use xlink:href="#DejaVuSans-438" x="896.09375"/>
      <use xlink:href="#DejaVuSans-440" x="961.083984"/>
      <use xlink:href="#DejaVuSans-43e" x="1024.560547"/>
      <use xlink:href="#DejaVuSans-432" x="1085.742188"/>
      <use xlink:href="#DejaVuSans-430" x="1144.677734"/>
      <use xlink:href="#DejaVuSans-43d" x="1205.957031"/>
      <use xlink:href="#DejaVuSans-438" x="1271.337891"/>
      <use xlink:href="#DejaVuSans-44f" x="1336.328125"/>
     </g>
    </g>
    <g id="line2d_32">
     <path d="M 66.6 69.418875 
L 76.6 69.418875 
L 86.6 69.418875 
" style="fill: none; stroke: #000000; stroke-width: 1.5; stroke-linecap: square"/>
     <g>
      <use xlink:href="#m851e6fdbdc" x="76.6" y="69.418875" style="stroke: #000000; stroke-linejoin: bevel"/>
     </g>
    </g>
    <g id="text_19">
     <!-- Запросы с кэшированием -->
     <g transform="translate(94.6 72.918875) scale(0.1 -0.1)">
      <use xlink:href="#DejaVuSans-417"/>
      <use xlink:href="#DejaVuSans-430" x="64.111328"/>
      <use xlink:href="#DejaVuSans-43f" x="125.390625"/>
      <use xlink:href="#DejaVuSans-440" x="190.771484"/>
      <use xlink:href="#DejaVuSans-43e" x="254.248047"/>
      <use xlink:href="#DejaVuSans-441" x="315.429688"/>
      <use xlink:href="#DejaVuSans-44b" x="370.410156"/>
      <use xlink:href="#DejaVuSans-20" x="449.365234"/>
      <use xlink:href="#DejaVuSans-441" x="481.152344"/>
      <use xlink:href="#DejaVuSans-20" x="536.132812"/>
      <use xlink:href="#DejaVuSans-43a" x="567.919922"/>
      <use xlink:href="#DejaVuSans-44d" x="628.320312"/>
      <use xlink:href="#DejaVuSans-448" x="683.203125"/>
      <use xlink:href="#DejaVuSans-438" x="774.707031"/>
      <use xlink:href="#DejaVuSans-440" x="839.697266"/>
      <use xlink:href="#DejaVuSans-43e" x="903.173828"/>
      <use xlink:href="#DejaVuSans-432" x="964.355469"/>
      <use xlink:href="#DejaVuSans-430" x="1023.291016"/>
      <use xlink:href="#DejaVuSans-43d" x="1084.570312"/>
      <use xlink:href="#DejaVuSans-438" x="1149.951172"/>
      <use xlink:href="#DejaVuSans-435" x="1214.941406"/>
      <use xlink:href="#DejaVuSans-43c" x="1276.464844"/>
     </g>
    </g>
   </g>
  </g>
 </g>
 <defs>
  <clipPath id="p66d80de328">
   <rect x="57.6" y="41.472" width="357.12" height="266.112"/>
  </clipPath>
 </defs>
</svg>
